<svg width="32" height="32" viewBox="0 0 32 32" fill="none" xmlns="http://www.w3.org/2000/svg">
<g clip-path="url(#clip0_2008_405)">
<path d="M31.9998 14.996C31.807 11.876 30.7053 8.8807 28.8307 6.37925C26.9561 3.8778 24.3905 1.97961 21.4501 0.918679C18.5097 -0.142251 15.3231 -0.319536 12.2832 0.40868C9.24329 1.1369 6.48292 2.73878 4.3424 5.01684C2.20188 7.29491 0.774784 10.1496 0.237052 13.2289C-0.30068 16.3082 0.0744579 19.4776 1.31622 22.3463C2.55798 25.215 4.61207 27.6576 7.22527 29.373C9.83847 31.0884 12.8965 32.0016 16.0225 32H25.3331C27.1007 31.9983 28.7954 31.2953 30.0452 30.0455C31.2951 28.7956 31.998 27.1009 31.9998 25.3334V14.996ZM29.3331 25.3334C29.3331 26.3942 28.9117 27.4116 28.1616 28.1618C27.4114 28.9119 26.394 29.3334 25.3331 29.3334H16.0225C14.141 29.3325 12.2809 28.9351 10.5634 28.1671C8.84586 27.3991 7.30949 26.2777 6.05446 24.876C4.79336 23.4751 3.84637 21.8206 3.27699 20.0237C2.70761 18.2268 2.52899 16.3289 2.75313 14.4574C3.10704 11.5053 4.43338 8.75494 6.52305 6.63992C8.61272 4.5249 11.3469 3.1655 14.2945 2.77602C14.8694 2.70395 15.4483 2.66744 16.0278 2.66669C19.1351 2.65821 22.1462 3.74389 24.5331 5.73335C25.9272 6.89194 27.0714 8.32156 27.8965 9.93553C28.7216 11.5495 29.2103 13.3142 29.3331 15.1227V25.3334Z" fill="#9D9D9D"/>
<path d="M10.6666 12H16C16.3536 12 16.6927 11.8596 16.9428 11.6095C17.1928 11.3595 17.3333 11.0203 17.3333 10.6667C17.3333 10.3131 17.1928 9.97395 16.9428 9.7239C16.6927 9.47385 16.3536 9.33337 16 9.33337H10.6666C10.313 9.33337 9.97389 9.47385 9.72384 9.7239C9.47379 9.97395 9.33331 10.3131 9.33331 10.6667C9.33331 11.0203 9.47379 11.3595 9.72384 11.6095C9.97389 11.8596 10.313 12 10.6666 12Z" fill="#9D9D9D"/>
<path d="M21.3333 14.6666H10.6666C10.313 14.6666 9.97389 14.8071 9.72384 15.0572C9.47379 15.3072 9.33331 15.6463 9.33331 16C9.33331 16.3536 9.47379 16.6927 9.72384 16.9428C9.97389 17.1928 10.313 17.3333 10.6666 17.3333H21.3333C21.6869 17.3333 22.0261 17.1928 22.2761 16.9428C22.5262 16.6927 22.6666 16.3536 22.6666 16C22.6666 15.6463 22.5262 15.3072 22.2761 15.0572C22.0261 14.8071 21.6869 14.6666 21.3333 14.6666Z" fill="#9D9D9D"/>
<path d="M21.3333 20H10.6666C10.313 20 9.97389 20.1405 9.72384 20.3905C9.47379 20.6406 9.33331 20.9797 9.33331 21.3333C9.33331 21.687 9.47379 22.0261 9.72384 22.2761C9.97389 22.5262 10.313 22.6667 10.6666 22.6667H21.3333C21.6869 22.6667 22.0261 22.5262 22.2761 22.2761C22.5262 22.0261 22.6666 21.687 22.6666 21.3333C22.6666 20.9797 22.5262 20.6406 22.2761 20.3905C22.0261 20.1405 21.6869 20 21.3333 20Z" fill="#9D9D9D"/>
</g>
<defs>
<clipPath id="clip0_2008_405">
<rect width="32" height="32" fill="white"/>
</clipPath>
</defs>
</svg>
