<svg width="30" height="32" viewBox="0 0 30 32" fill="none" xmlns="http://www.w3.org/2000/svg">
<path d="M27.392 18.5333L26.8 18.192C27.0665 16.7419 27.0665 15.2554 26.8 13.8053L27.392 13.464C27.8472 13.2014 28.2463 12.8516 28.5664 12.4347C28.8865 12.0179 29.1213 11.5421 29.2575 11.0344C29.3937 10.5268 29.4286 9.99732 29.3601 9.47621C29.2917 8.95511 29.1213 8.45258 28.8587 7.99733C28.596 7.54208 28.2463 7.14302 27.8294 6.82294C27.4125 6.50285 26.9367 6.26801 26.4291 6.13182C25.9215 5.99562 25.392 5.96075 24.8709 6.02918C24.3498 6.09762 23.8472 6.26802 23.392 6.53067L22.7987 6.87333C21.678 5.91589 20.3902 5.17366 19 4.684V4C19 2.93913 18.5786 1.92172 17.8284 1.17157C17.0783 0.421427 16.0609 0 15 0C13.9391 0 12.9217 0.421427 12.1716 1.17157C11.4214 1.92172 11 2.93913 11 4V4.684C9.60985 5.17542 8.32246 5.91947 7.20266 6.87867L6.60666 6.53333C5.68725 6.0029 4.59477 5.85943 3.56957 6.13448C2.54437 6.40954 1.67043 7.08058 1.14 8C0.609563 8.91942 0.466092 10.0119 0.741146 11.0371C1.0162 12.0623 1.68725 12.9362 2.60666 13.4667L3.19866 13.808C2.93214 15.2581 2.93214 16.7446 3.19866 18.1947L2.60666 18.536C1.68725 19.0664 1.0162 19.9404 0.741146 20.9656C0.466092 21.9908 0.609563 23.0833 1.14 24.0027C1.67043 24.9221 2.54437 25.5931 3.56957 25.8682C4.59477 26.1432 5.68725 25.9998 6.60666 25.4693L7.2 25.1267C8.32102 26.0842 9.6093 26.8265 11 27.316V28C11 29.0609 11.4214 30.0783 12.1716 30.8284C12.9217 31.5786 13.9391 32 15 32C16.0609 32 17.0783 31.5786 17.8284 30.8284C18.5786 30.0783 19 29.0609 19 28V27.316C20.3901 26.8246 21.6775 26.0805 22.7973 25.1213L23.3933 25.4653C24.3127 25.9958 25.4052 26.1392 26.4304 25.8642C27.4556 25.5891 28.3296 24.9181 28.86 23.9987C29.3904 23.0793 29.5339 21.9868 29.2588 20.9616C28.9838 19.9364 28.3127 19.0624 27.3933 18.532L27.392 18.5333ZM23.9947 13.4987C24.4462 15.1348 24.4462 16.8626 23.9947 18.4987C23.9158 18.7834 23.9338 19.0863 24.0458 19.3597C24.1578 19.6332 24.3574 19.8617 24.6133 20.0093L26.0587 20.844C26.3651 21.0208 26.5887 21.3121 26.6803 21.6538C26.772 21.9955 26.7241 22.3596 26.5473 22.666C26.3705 22.9724 26.0792 23.196 25.7375 23.2877C25.3958 23.3793 25.0317 23.3315 24.7253 23.1547L23.2773 22.3173C23.0212 22.169 22.723 22.1101 22.4297 22.1499C22.1363 22.1897 21.8646 22.326 21.6573 22.5373C20.4705 23.7489 18.9754 24.6133 17.3333 25.0373C17.0467 25.111 16.7927 25.278 16.6115 25.5119C16.4302 25.7458 16.3318 26.0334 16.332 26.3293V28C16.332 28.3536 16.1915 28.6928 15.9415 28.9428C15.6914 29.1929 15.3523 29.3333 14.9987 29.3333C14.645 29.3333 14.3059 29.1929 14.0559 28.9428C13.8058 28.6928 13.6653 28.3536 13.6653 28V26.3307C13.6655 26.0347 13.5672 25.7471 13.3859 25.5132C13.2046 25.2793 12.9506 25.1124 12.664 25.0387C11.0218 24.6129 9.5271 23.7466 8.34133 22.5333C8.13403 22.322 7.86231 22.1857 7.569 22.1459C7.2757 22.1061 6.97747 22.165 6.72133 22.3133L5.276 23.1493C5.1243 23.2383 4.95652 23.2963 4.7823 23.3201C4.60808 23.344 4.43087 23.3331 4.26087 23.2881C4.09087 23.2432 3.93144 23.1651 3.79176 23.0582C3.65208 22.9514 3.5349 22.8181 3.44698 22.6658C3.35906 22.5135 3.30212 22.3453 3.27946 22.1709C3.25679 21.9966 3.26884 21.8194 3.31492 21.6497C3.36099 21.48 3.44017 21.3211 3.54791 21.1822C3.65564 21.0432 3.7898 20.9269 3.94266 20.84L5.388 20.0053C5.64393 19.8577 5.84356 19.6292 5.95554 19.3557C6.06752 19.0823 6.0855 18.7794 6.00666 18.4947C5.55514 16.8586 5.55514 15.1308 6.00666 13.4947C6.08408 13.2105 6.06524 12.9087 5.95308 12.6364C5.84092 12.3641 5.64175 12.1365 5.38666 11.9893L3.94133 11.1547C3.63492 10.9779 3.41129 10.6866 3.31965 10.3449C3.22801 10.0032 3.27585 9.63908 3.45266 9.33267C3.62947 9.02625 3.92077 8.80263 4.26246 8.71099C4.60415 8.61934 4.96825 8.66719 5.27466 8.844L6.72266 9.68133C6.9781 9.83002 7.2757 9.88962 7.5687 9.85076C7.8617 9.8119 8.13348 9.67679 8.34133 9.46667C9.52811 8.25512 11.0232 7.39069 12.6653 6.96667C12.9528 6.89275 13.2075 6.725 13.3888 6.49C13.5702 6.255 13.668 5.96619 13.6667 5.66933V4C13.6667 3.64638 13.8071 3.30724 14.0572 3.05719C14.3072 2.80714 14.6464 2.66667 15 2.66667C15.3536 2.66667 15.6928 2.80714 15.9428 3.05719C16.1929 3.30724 16.3333 3.64638 16.3333 4V5.66933C16.3332 5.96528 16.4315 6.25286 16.6128 6.48677C16.7941 6.72069 17.048 6.88764 17.3347 6.96133C18.9773 7.38687 20.4725 8.25318 21.6587 9.46667C21.866 9.67796 22.1377 9.81426 22.431 9.85409C22.7243 9.89392 23.0225 9.83502 23.2787 9.68667L24.724 8.85067C24.8757 8.76174 25.0435 8.70369 25.2177 8.67987C25.3919 8.65605 25.5691 8.66692 25.7391 8.71187C25.9091 8.75681 26.0686 8.83494 26.2082 8.94175C26.3479 9.04856 26.4651 9.18195 26.553 9.33423C26.6409 9.48651 26.6979 9.65468 26.7205 9.82905C26.7432 10.0034 26.7311 10.1806 26.6851 10.3503C26.639 10.52 26.5598 10.6789 26.4521 10.8178C26.3444 10.9568 26.2102 11.0731 26.0573 11.16L24.612 11.9947C24.3574 12.1423 24.1588 12.37 24.0471 12.6423C23.9354 12.9145 23.917 13.2161 23.9947 13.5V13.4987Z" fill="#9B9B9B"/>
</svg>
