<svg width="32" height="32" viewBox="0 0 32 32" fill="none" xmlns="http://www.w3.org/2000/svg">
<path d="M32 13.3334C32.0001 13.2361 31.9893 13.139 31.968 13.0441L30.2347 5.22009C29.9126 3.73508 29.0898 2.40595 27.9042 1.45555C26.7185 0.505152 25.2422 -0.00871515 23.7227 0.000111851H8.27734C6.75874 -0.00748853 5.28364 0.506939 4.09911 1.45723C2.91457 2.40753 2.09253 3.73598 1.77067 5.22009L0.0320018 13.0441C0.0106793 13.139 -5.28798e-05 13.2361 1.82586e-06 13.3334V14.6667C-0.00107392 15.9648 0.47323 17.2184 1.33334 18.1907V25.3334C1.33545 27.1008 2.03851 28.7953 3.2883 30.045C4.53808 31.2948 6.23254 31.9979 8 32H24C25.7675 31.9979 27.4619 31.2948 28.7117 30.045C29.9615 28.7953 30.6646 27.1008 30.6667 25.3334V18.1907C31.5268 17.2184 32.0011 15.9648 32 14.6667V13.3334ZM2.66667 13.4787L4.37333 5.79876C4.56673 4.90843 5.06002 4.11153 5.77068 3.5414C6.48135 2.97127 7.36625 2.66251 8.27734 2.66677H9.33333V6.66676C9.33333 7.02038 9.47381 7.35951 9.72386 7.60956C9.97391 7.85961 10.313 8.00008 10.6667 8.00008C11.0203 8.00008 11.3594 7.85961 11.6095 7.60956C11.8595 7.35951 12 7.02038 12 6.66676V2.66677H20V6.66676C20 7.02038 20.1405 7.35951 20.3905 7.60956C20.6406 7.85961 20.9797 8.00008 21.3333 8.00008C21.687 8.00008 22.0261 7.85961 22.2761 7.60956C22.5262 7.35951 22.6667 7.02038 22.6667 6.66676V2.66677H23.7227C24.6337 2.66251 25.5187 2.97127 26.2293 3.5414C26.94 4.11153 27.4333 4.90843 27.6267 5.79876L29.3333 13.4787V14.6667C29.3333 15.374 29.0524 16.0522 28.5523 16.5523C28.0522 17.0524 27.3739 17.3334 26.6667 17.3334H25.3333C24.6261 17.3334 23.9478 17.0524 23.4477 16.5523C22.9476 16.0522 22.6667 15.374 22.6667 14.6667C22.6667 14.3131 22.5262 13.974 22.2761 13.7239C22.0261 13.4739 21.687 13.3334 21.3333 13.3334C20.9797 13.3334 20.6406 13.4739 20.3905 13.7239C20.1405 13.974 20 14.3131 20 14.6667C20 15.374 19.719 16.0522 19.219 16.5523C18.7189 17.0524 18.0406 17.3334 17.3333 17.3334H14.6667C13.9594 17.3334 13.2811 17.0524 12.781 16.5523C12.281 16.0522 12 15.374 12 14.6667C12 14.3131 11.8595 13.974 11.6095 13.7239C11.3594 13.4739 11.0203 13.3334 10.6667 13.3334C10.313 13.3334 9.97391 13.4739 9.72386 13.7239C9.47381 13.974 9.33333 14.3131 9.33333 14.6667C9.33333 15.374 9.05238 16.0522 8.55229 16.5523C8.05219 17.0524 7.37391 17.3334 6.66667 17.3334H5.33333C4.62609 17.3334 3.94781 17.0524 3.44772 16.5523C2.94762 16.0522 2.66667 15.374 2.66667 14.6667V13.4787ZM24 29.3333H8C6.93914 29.3333 5.92172 28.9119 5.17157 28.1618C4.42143 27.4116 4 26.3942 4 25.3334V19.8307C4.43547 19.9435 4.88351 20.0004 5.33333 20H6.66667C7.42376 20.0004 8.17221 19.8392 8.86201 19.5272C9.55181 19.2152 10.1671 18.7596 10.6667 18.1907C11.1663 18.7596 11.7815 19.2152 12.4713 19.5272C13.1611 19.8392 13.9096 20.0004 14.6667 20H17.3333C18.0904 20.0004 18.8389 19.8392 19.5287 19.5272C20.2185 19.2152 20.8337 18.7596 21.3333 18.1907C21.8329 18.7596 22.4482 19.2152 23.138 19.5272C23.8278 19.8392 24.5762 20.0004 25.3333 20H26.6667C27.1165 20.0004 27.5645 19.9435 28 19.8307V25.3334C28 26.3942 27.5786 27.4116 26.8284 28.1618C26.0783 28.9119 25.0609 29.3333 24 29.3333Z" fill="#9B9B9B"/>
</svg>
