<svg width="35" height="26" viewBox="0 0 35 26" fill="none" xmlns="http://www.w3.org/2000/svg">
<path d="M34.854 12.35C31.3202 4.72875 24.6725 0 17.5 0C10.3275 0 3.67982 4.72875 0.146047 12.35C0.0497202 12.555 0 12.7763 0 13C0 13.2237 0.0497202 13.445 0.146047 13.65C3.67982 21.2712 10.3275 26 17.5 26C24.6725 26 31.3202 21.2712 34.854 13.65C34.9503 13.445 35 13.2237 35 13C35 12.7763 34.9503 12.555 34.854 12.35ZM17.5 22.75C11.9369 22.75 6.70626 19.0287 3.67982 13C6.70626 6.97125 11.9369 3.25 17.5 3.25C23.0631 3.25 28.2937 6.97125 31.3202 13C28.2937 19.0287 23.0631 22.75 17.5 22.75ZM17.5 6.5C16.116 6.5 14.7631 6.88122 13.6124 7.59545C12.4616 8.30968 11.5647 9.32484 11.0351 10.5126C10.5055 11.7003 10.3669 13.0072 10.6369 14.2681C10.9069 15.529 11.5733 16.6872 12.552 17.5962C13.5306 18.5052 14.7774 19.1243 16.1348 19.3751C17.4922 19.6259 18.8992 19.4972 20.1779 19.0052C21.4565 18.5132 22.5494 17.6801 23.3183 16.6112C24.0872 15.5423 24.4976 14.2856 24.4976 13C24.4976 11.2761 23.7603 9.62279 22.448 8.40381C21.1357 7.18482 19.3559 6.5 17.5 6.5ZM17.5 16.25C16.808 16.25 16.1316 16.0594 15.5562 15.7023C14.9808 15.3452 14.5324 14.8376 14.2675 14.2437C14.0027 13.6499 13.9334 12.9964 14.0684 12.366C14.2034 11.7355 14.5367 11.1564 15.026 10.7019C15.5153 10.2474 16.1387 9.93785 16.8174 9.81245C17.4961 9.68705 18.1996 9.75141 18.8389 9.99739C19.4782 10.2434 20.0247 10.6599 20.4091 11.1944C20.7936 11.7289 20.9988 12.3572 20.9988 13C20.9988 13.862 20.6302 14.6886 19.974 15.2981C19.3179 15.9076 18.4279 16.25 17.5 16.25Z" fill="#91919A"/>
</svg>
