<svg width="32" height="32" viewBox="0 0 32 32" fill="none" xmlns="http://www.w3.org/2000/svg">
<g clip-path="url(#clip0_2008_417)">
<path d="M26.8494 32C26.3561 31.9986 25.868 31.8996 25.4133 31.7085C24.9585 31.5174 24.5462 31.2381 24.2 30.8867L16 22.7347L7.80002 30.892C7.27339 31.4263 6.59801 31.7896 5.86191 31.9344C5.12581 32.0792 4.36315 31.9989 3.67336 31.704C2.97671 31.4238 2.38075 30.94 1.9633 30.3159C1.54585 29.6917 1.32631 28.9562 1.33336 28.2053V6.66667C1.33336 4.89856 2.03573 3.20286 3.28598 1.95262C4.53622 0.702379 6.23191 0 8.00002 0L24 0C24.8755 0 25.7424 0.172438 26.5512 0.50747C27.3601 0.842501 28.095 1.33356 28.7141 1.95262C29.3331 2.57168 29.8242 3.30661 30.1592 4.11544C30.4942 4.92428 30.6667 5.79119 30.6667 6.66667V28.2053C30.6742 28.9556 30.4554 29.6907 30.0389 30.3147C29.6225 30.9388 29.0277 31.423 28.332 31.704C27.8624 31.9004 27.3584 32.001 26.8494 32ZM8.00002 2.66667C6.93916 2.66667 5.92174 3.08809 5.17159 3.83824C4.42145 4.58839 4.00002 5.6058 4.00002 6.66667V28.2053C3.99954 28.4275 4.06492 28.6448 4.18789 28.8299C4.31086 29.0149 4.48592 29.1594 4.69094 29.245C4.89597 29.3306 5.12176 29.3535 5.33981 29.3109C5.55786 29.2682 5.75837 29.1619 5.91602 29.0053L15.0667 19.9107C15.3165 19.6623 15.6544 19.5229 16.0067 19.5229C16.3589 19.5229 16.6969 19.6623 16.9467 19.9107L26.0867 29.0027C26.2443 29.1592 26.4449 29.2655 26.6629 29.3082C26.8809 29.3508 27.1067 29.3279 27.3118 29.2423C27.5168 29.1567 27.6918 29.0123 27.8148 28.8272C27.9378 28.6422 28.0032 28.4248 28.0027 28.2027V6.66667C28.0027 5.6058 27.5813 4.58839 26.8311 3.83824C26.081 3.08809 25.0636 2.66667 24.0027 2.66667H8.00002Z" fill="current"/>
</g>
<defs>
<clipPath id="clip0_2008_417">
<rect width="32" height="32" fill="white"/>
</clipPath>
</defs>
</svg>
