<svg width="32" height="32" viewBox="0 0 32 32" fill="none" xmlns="http://www.w3.org/2000/svg">
<g clip-path="url(#clip0_2008_419)">
<path d="M29.41 5.66992L19.578 0.985917C17.4138 -0.306833 14.72 -0.32977 12.534 0.925917L2.5914 5.66992C2.55409 5.6886 2.5154 5.7086 2.4794 5.72992C0.119901 7.07904 -0.699224 10.0855 0.649901 12.445C1.10721 13.2449 1.7799 13.9002 2.5914 14.3366L5.33409 15.6433V22.1766C5.33571 25.098 7.23665 27.679 10.0261 28.5473C11.9673 29.1089 13.9801 29.3838 16.0008 29.3633C18.0212 29.3859 20.034 29.1133 21.9755 28.554C24.7649 27.6858 26.6658 25.1047 26.6675 22.1833V15.6406L29.3342 14.3659V25.3632C29.3342 26.0996 29.9311 26.6965 30.6675 26.6965C31.4038 26.6965 32.0008 26.0996 32.0008 25.3632V9.36323C32.0097 7.79754 30.7734 6.35117 29.41 5.66992ZM24.0007 22.1833C24.0014 23.9307 22.8677 25.4764 21.2007 26.0006C19.5103 26.4836 17.7587 26.718 16.0007 26.6966C14.2428 26.718 12.4911 26.4836 10.8007 26.0006C9.13378 25.4764 8.00003 23.9307 8.00071 22.1833V16.914L12.4234 19.0207C13.5147 19.6687 14.761 20.0092 16.0301 20.006C17.2381 20.0145 18.4258 19.6947 19.4661 19.0807L24.0007 16.9139V22.1833ZM28.2674 11.9299L18.2114 16.7299C16.8093 17.5464 15.0713 17.5232 13.6914 16.6699L3.85271 11.9899C2.75603 11.3985 2.3464 10.0301 2.93778 8.93348C3.13778 8.5626 3.43765 8.25517 3.8034 8.04592L13.7967 3.2726C15.1993 2.45798 16.9363 2.48104 18.3167 3.3326L28.1487 8.0166C28.8718 8.4181 29.3242 9.17629 29.334 10.0033C29.3353 10.7867 28.932 11.5152 28.2674 11.9299Z" fill="current"/>
</g>
<defs>
<clipPath id="clip0_2008_419">
<rect width="32" height="32" fill="white"/>
</clipPath>
</defs>
</svg>
