<svg width="32" height="32" viewBox="0 0 32 32" fill="none" xmlns="http://www.w3.org/2000/svg">
<g clip-path="url(#clip0_2008_428)">
<path d="M30.828 12.0635L20.7147 1.94883C19.463 0.70082 17.7676 0 16 0C14.2325 0 12.537 0.70082 11.2854 1.94883L1.17202 12.0635C0.79925 12.4339 0.503709 12.8746 0.302526 13.36C0.101343 13.8455 -0.00148053 14.366 1.6106e-05 14.8915V27.9808C1.6106e-05 29.0417 0.421444 30.0591 1.17159 30.8093C1.92173 31.5594 2.93915 31.9808 4.00002 31.9808H28C29.0609 31.9808 30.0783 31.5594 30.8284 30.8093C31.5786 30.0591 32 29.0417 32 27.9808V14.8915C32.0015 14.366 31.8987 13.8455 31.6975 13.36C31.4963 12.8746 31.2008 12.4339 30.828 12.0635ZM20 29.3142H12V24.0688C12 23.008 12.4214 21.9906 13.1716 21.2404C13.9217 20.4903 14.9392 20.0688 16 20.0688C17.0609 20.0688 18.0783 20.4903 18.8284 21.2404C19.5786 21.9906 20 23.008 20 24.0688V29.3142ZM29.3334 27.9808C29.3334 28.3345 29.1929 28.6736 28.9428 28.9236C28.6928 29.1737 28.3536 29.3142 28 29.3142H22.6667V24.0688C22.6667 22.3007 21.9643 20.605 20.7141 19.3548C19.4638 18.1045 17.7681 17.4022 16 17.4022C14.2319 17.4022 12.5362 18.1045 11.286 19.3548C10.0357 20.605 9.33335 22.3007 9.33335 24.0688V29.3142H4.00002C3.64639 29.3142 3.30726 29.1737 3.05721 28.9236C2.80716 28.6736 2.66668 28.3345 2.66668 27.9808V14.8915C2.66792 14.5381 2.80827 14.1995 3.05735 13.9488L13.1707 3.83817C13.9223 3.09007 14.9396 2.67009 16 2.67009C17.0605 2.67009 18.0778 3.09007 18.8294 3.83817L28.9427 13.9528C29.1908 14.2025 29.3311 14.5395 29.3334 14.8915V27.9808Z" fill="currentColor"/>
</g>
<defs>
<clipPath id="clip0_2008_428">
<rect width="32" height="32" fill="white"/>
</clipPath>
</defs>
</svg>
