<svg width="32" height="33" viewBox="0 0 32 33" fill="none" xmlns="http://www.w3.org/2000/svg">
<g clip-path="url(#clip0_2008_434)">
<path d="M16 0.0791016C12.8355 0.0791016 9.74207 1.01749 7.11088 2.77559C4.4797 4.53369 2.42894 7.03255 1.21793 9.95617C0.00693258 12.8798 -0.309921 16.0969 0.307443 19.2006C0.924806 22.3042 2.44866 25.1552 4.6863 27.3928C6.92394 29.6305 9.77487 31.1543 12.8786 31.7717C15.9823 32.389 19.1993 32.0722 22.1229 30.8612C25.0466 29.6502 27.5454 27.5994 29.3035 24.9682C31.0616 22.337 32 19.2436 32 16.0791C31.9954 11.837 30.3082 7.77005 27.3087 4.77046C24.3091 1.77087 20.2421 0.0836897 16 0.0791016ZM16 29.4124C13.3629 29.4124 10.7851 28.6305 8.59241 27.1654C6.39975 25.7003 4.69078 23.6179 3.68161 21.1816C2.67245 18.7452 2.4084 16.0643 2.92287 13.4779C3.43734 10.8915 4.70722 8.51571 6.57192 6.65101C8.43662 4.78631 10.8124 3.51643 13.3988 3.00197C15.9852 2.4875 18.6661 2.75154 21.1025 3.76071C23.5388 4.76988 25.6212 6.47884 27.0863 8.6715C28.5514 10.8642 29.3333 13.442 29.3333 16.0791C29.3295 19.6141 27.9235 23.0033 25.4238 25.5029C22.9242 28.0026 19.535 29.4086 16 29.4124Z" fill="current"/>
<path d="M16 13.4125H14.6666C14.313 13.4125 13.9739 13.553 13.7238 13.803C13.4738 14.053 13.3333 14.3922 13.3333 14.7458C13.3333 15.0994 13.4738 15.4386 13.7238 15.6886C13.9739 15.9387 14.313 16.0791 14.6666 16.0791H16V24.0791C16 24.4328 16.1405 24.7719 16.3905 25.022C16.6406 25.272 16.9797 25.4125 17.3333 25.4125C17.6869 25.4125 18.0261 25.272 18.2761 25.022C18.5262 24.7719 18.6666 24.4328 18.6666 24.0791V16.0791C18.6666 15.3719 18.3857 14.6936 17.8856 14.1935C17.3855 13.6934 16.7072 13.4125 16 13.4125Z" fill="current"/>
<path d="M16 10.7457C17.1046 10.7457 18 9.8503 18 8.74573C18 7.64116 17.1046 6.74573 16 6.74573C14.8954 6.74573 14 7.64116 14 8.74573C14 9.8503 14.8954 10.7457 16 10.7457Z" fill="current"/>
</g>
<defs>
<clipPath id="clip0_2008_434">
<rect width="32" height="32" fill="white" transform="translate(0 0.0791016)"/>
</clipPath>
</defs>
</svg>
