<svg width="39" height="37" viewBox="0 0 39 37" fill="none" xmlns="http://www.w3.org/2000/svg">
<path d="M31.7598 9.00914C31.7598 7.811 30.7498 6.84356 29.5081 6.84356C28.2664 6.84356 27.2554 7.811 27.2554 9.00914C27.2554 10.2029 28.2664 11.1703 29.5081 11.1703C30.7498 11.1703 31.7598 10.2029 31.7598 9.00914Z" fill="#383838"/>
<path fill-rule="evenodd" clip-rule="evenodd" d="M9.87231 18.6326C9.87231 13.5202 14.1793 9.37072 19.4972 9.37072C24.8152 9.37072 29.1268 13.5202 29.1268 18.6326C29.1268 23.7407 24.8152 27.8857 19.4972 27.8857C14.1793 27.8857 9.87231 23.7407 9.87231 18.6326ZM13.248 18.6326C13.248 21.9492 16.0474 24.636 19.4972 24.636C22.9481 24.636 25.7511 21.9492 25.7511 18.6326C25.7511 15.3107 22.9481 12.6205 19.4972 12.6205C16.0474 12.6205 13.248 15.3107 13.248 18.6326Z" fill="#383838"/>
<path fill-rule="evenodd" clip-rule="evenodd" d="M38.136 11.1987C38.0443 9.27808 37.7292 7.96588 37.2613 6.82299C36.785 5.63728 36.1465 4.63242 35.1013 3.62757C34.0607 2.62719 33.0154 2.01338 31.7821 1.55018C30.5886 1.10474 29.2282 0.79827 27.2295 0.714555C25.2307 0.621886 24.5923 0.60498 19.4977 0.60498C14.4077 0.60498 13.7646 0.621886 11.7659 0.714555C9.77169 0.79827 8.41232 1.10474 7.21328 1.55018C5.98456 2.01338 4.93931 2.62719 3.89873 3.62757C2.85348 4.63242 2.21501 5.63728 1.73409 6.82299C1.27075 7.96588 0.955713 9.27808 0.85932 11.1987C0.772239 13.1202 0.75 13.7349 0.75 18.6327C0.75 23.526 0.772239 24.1398 0.85932 26.0613C0.955713 27.9784 1.27075 29.2897 1.73409 30.438C2.21501 31.6192 2.85348 32.6285 3.89873 33.6289C4.93931 34.6293 5.98456 35.2476 7.21328 35.7099C8.41232 36.1553 9.77169 36.4582 11.7659 36.5464C13.7646 36.6346 14.4077 36.656 19.4977 36.656C24.5923 36.656 25.2307 36.6346 27.2295 36.5464C29.2282 36.4582 30.5886 36.1553 31.7821 35.7099C33.0154 35.2476 34.0607 34.6293 35.1013 33.6289C36.1465 32.6285 36.785 31.6192 37.2613 30.438C37.7292 29.2897 38.0443 27.9784 38.136 26.0613C38.2278 24.1398 38.25 23.526 38.25 18.6327C38.25 13.7349 38.2278 13.1202 38.136 11.1987ZM34.7602 25.9134C34.6768 27.6711 34.3711 28.626 34.1172 29.2603C33.7762 30.1012 33.3694 30.7025 32.7096 31.3333C32.0573 31.964 31.4318 32.3541 30.557 32.6784C29.8973 32.9261 28.9002 33.2209 27.072 33.3047C25.0955 33.3884 24.5098 33.4062 19.4977 33.4062C14.4902 33.4062 13.8998 33.3884 11.9233 33.3047C10.0951 33.2209 9.10271 32.9261 8.4429 32.6784C7.56354 32.3541 6.94272 31.964 6.28666 31.3333C5.62595 30.7025 5.21918 30.1012 4.88281 29.2603C4.62887 28.626 4.31849 27.6711 4.23968 25.9134C4.14336 24.0133 4.12571 23.4414 4.12571 18.6327C4.12571 13.8142 4.14336 13.2467 4.23968 11.3466C4.31849 9.58902 4.62887 8.63494 4.88281 7.99528C5.21918 7.15525 5.62595 6.55748 6.28666 5.92677C6.94272 5.297 7.56354 4.90588 8.4429 4.5781C9.10271 4.32956 10.0951 4.03913 11.9233 3.95542C13.8998 3.87163 14.4902 3.85025 19.4977 3.85025C24.5098 3.85025 25.0955 3.87163 27.072 3.95542C28.9002 4.03913 29.8973 4.32956 30.557 4.5781C31.4318 4.90588 32.0573 5.297 32.7096 5.92677C33.3694 6.55748 33.7762 7.15525 34.1172 7.99528C34.3711 8.63494 34.6768 9.58902 34.7602 11.3466C34.852 13.2467 34.8742 13.8142 34.8742 18.6327C34.8742 23.4414 34.852 24.0133 34.7602 25.9134Z" fill="#383838"/>
</svg>
