<svg width="323" height="58" viewBox="0 0 323 58" fill="none" xmlns="http://www.w3.org/2000/svg">
<path d="M26.0625 21.8411C26.0625 25.7322 23.1244 28.8865 19.5 28.8865C15.8756 28.8865 12.9375 25.7322 12.9375 21.8411M6.24242 46.5H32.7576C35.1006 46.5 37 44.4987 37 42.0301L34.2822 15.9699C34.2822 13.5013 32.3828 11.5 30.0398 11.5H8.42992C6.0869 11.5 4.1875 13.5013 4.1875 15.9699L2 42.0301C2 44.4987 3.8994 46.5 6.24242 46.5Z" stroke="#383838" stroke-width="4" stroke-linecap="round" stroke-linejoin="round"/>
<path d="M76.5881 22.375C76.3494 21.5455 76.0142 20.8125 75.5824 20.1761C75.1506 19.5284 74.6222 18.983 73.9972 18.5398C73.3835 18.0852 72.679 17.7386 71.8835 17.5C71.0994 17.2614 70.2301 17.142 69.2756 17.142C67.4915 17.142 65.9233 17.5852 64.571 18.4716C63.2301 19.358 62.1847 20.6477 61.4347 22.3409C60.6847 24.0227 60.3097 26.0795 60.3097 28.5114C60.3097 30.9432 60.679 33.0114 61.4176 34.7159C62.1563 36.4205 63.2017 37.7216 64.554 38.6193C65.9062 39.5057 67.5028 39.9489 69.3438 39.9489C71.0142 39.9489 72.4403 39.6534 73.6222 39.0625C74.8153 38.4602 75.7244 37.6136 76.3494 36.5227C76.9858 35.4318 77.304 34.142 77.304 32.6534L78.804 32.875H69.804V27.3182H84.4119V31.7159C84.4119 34.7841 83.7642 37.4205 82.4688 39.625C81.1733 41.8182 79.3892 43.5114 77.1165 44.7045C74.8438 45.8864 72.2415 46.4773 69.3097 46.4773C66.0369 46.4773 63.1619 45.7557 60.6847 44.3125C58.2074 42.858 56.2756 40.7955 54.8892 38.125C53.5142 35.4432 52.8267 32.2614 52.8267 28.5795C52.8267 25.75 53.2358 23.2273 54.054 21.0114C54.8835 18.7841 56.0426 16.8977 57.5312 15.3523C59.0199 13.8068 60.7528 12.6307 62.7301 11.8239C64.7074 11.017 66.8494 10.6136 69.1562 10.6136C71.1335 10.6136 72.9744 10.9034 74.679 11.483C76.3835 12.0511 77.8949 12.858 79.2131 13.9034C80.5426 14.9489 81.6278 16.1932 82.4688 17.6364C83.3097 19.0682 83.8494 20.6477 84.0881 22.375H76.5881ZM89.956 46V11.0909H103.729C106.365 11.0909 108.615 11.5625 110.479 12.5057C112.354 13.4375 113.78 14.7614 114.757 16.4773C115.746 18.1818 116.24 20.1875 116.24 22.4943C116.24 24.8125 115.74 26.8068 114.74 28.4773C113.74 30.1364 112.291 31.4091 110.393 32.2955C108.507 33.1818 106.223 33.625 103.541 33.625H94.3196V27.6932H102.348C103.757 27.6932 104.928 27.5 105.859 27.1136C106.791 26.7273 107.484 26.1477 107.939 25.375C108.405 24.6023 108.638 23.642 108.638 22.4943C108.638 21.3352 108.405 20.358 107.939 19.5625C107.484 18.767 106.786 18.1648 105.842 17.7557C104.911 17.3352 103.734 17.125 102.314 17.125H97.3366V46H89.956ZM108.808 30.1136L117.484 46H109.337L100.848 30.1136H108.808ZM153.536 28.5455C153.536 32.3523 152.814 35.5909 151.371 38.2614C149.939 40.9318 147.984 42.9716 145.507 44.3807C143.041 45.7784 140.268 46.4773 137.189 46.4773C134.087 46.4773 131.303 45.7727 128.837 44.3636C126.371 42.9545 124.422 40.9148 122.99 38.2443C121.558 35.5739 120.842 32.3409 120.842 28.5455C120.842 24.7386 121.558 21.5 122.99 18.8295C124.422 16.1591 126.371 14.125 128.837 12.7273C131.303 11.3182 134.087 10.6136 137.189 10.6136C140.268 10.6136 143.041 11.3182 145.507 12.7273C147.984 14.125 149.939 16.1591 151.371 18.8295C152.814 21.5 153.536 24.7386 153.536 28.5455ZM146.053 28.5455C146.053 26.0795 145.683 24 144.945 22.3068C144.217 20.6136 143.189 19.3295 141.859 18.4545C140.53 17.5795 138.973 17.142 137.189 17.142C135.405 17.142 133.848 17.5795 132.518 18.4545C131.189 19.3295 130.155 20.6136 129.416 22.3068C128.689 24 128.325 26.0795 128.325 28.5455C128.325 31.0114 128.689 33.0909 129.416 34.7841C130.155 36.4773 131.189 37.7614 132.518 38.6364C133.848 39.5114 135.405 39.9489 137.189 39.9489C138.973 39.9489 140.53 39.5114 141.859 38.6364C143.189 37.7614 144.217 36.4773 144.945 34.7841C145.683 33.0909 146.053 31.0114 146.053 28.5455ZM180.565 11.0909H187.946V33.7614C187.946 36.3068 187.338 38.5341 186.122 40.4432C184.918 42.3523 183.23 43.8409 181.06 44.9091C178.889 45.9659 176.361 46.4943 173.474 46.4943C170.577 46.4943 168.043 45.9659 165.872 44.9091C163.702 43.8409 162.014 42.3523 160.81 40.4432C159.605 38.5341 159.003 36.3068 159.003 33.7614V11.0909H166.384V33.1307C166.384 34.4602 166.673 35.642 167.253 36.6761C167.844 37.7102 168.673 38.5227 169.741 39.1136C170.81 39.7045 172.054 40 173.474 40C174.906 40 176.151 39.7045 177.207 39.1136C178.276 38.5227 179.099 37.7102 179.679 36.6761C180.27 35.642 180.565 34.4602 180.565 33.1307V11.0909ZM194.018 46V11.0909H207.791C210.439 11.0909 212.695 11.5966 214.558 12.608C216.422 13.608 217.842 15 218.82 16.7841C219.808 18.5568 220.303 20.6023 220.303 22.9205C220.303 25.2386 219.803 27.2841 218.803 29.0568C217.803 30.8295 216.354 32.2102 214.456 33.1989C212.57 34.1875 210.286 34.6818 207.604 34.6818H198.825V28.767H206.411C207.831 28.767 209.001 28.5227 209.922 28.0341C210.854 27.5341 211.547 26.8466 212.001 25.9716C212.467 25.0852 212.7 24.0682 212.7 22.9205C212.7 21.7614 212.467 20.75 212.001 19.8864C211.547 19.0114 210.854 18.3352 209.922 17.858C208.99 17.3693 207.808 17.125 206.376 17.125H201.399V46H194.018Z" fill="#383838"/>
<path d="M225.097 46V11.0909H239.074C241.642 11.0909 243.784 11.4716 245.5 12.233C247.216 12.9943 248.506 14.0511 249.369 15.4034C250.233 16.7443 250.665 18.2898 250.665 20.0398C250.665 21.4034 250.392 22.6023 249.847 23.6364C249.301 24.6591 248.551 25.5 247.597 26.1591C246.653 26.8068 245.574 27.267 244.358 27.5398V27.8807C245.688 27.9375 246.932 28.3125 248.091 29.0057C249.261 29.6989 250.21 30.6705 250.938 31.9205C251.665 33.1591 252.028 34.6364 252.028 36.3523C252.028 38.2045 251.568 39.858 250.648 41.3125C249.739 42.7557 248.392 43.8977 246.608 44.7386C244.824 45.5795 242.625 46 240.011 46H225.097ZM232.477 39.9659H238.494C240.551 39.9659 242.051 39.5739 242.994 38.7898C243.938 37.9943 244.409 36.9375 244.409 35.6193C244.409 34.6534 244.176 33.8011 243.71 33.0625C243.244 32.3239 242.58 31.7443 241.716 31.3239C240.864 30.9034 239.847 30.6932 238.665 30.6932H232.477V39.9659ZM232.477 25.6989H237.949C238.96 25.6989 239.858 25.5227 240.642 25.1705C241.438 24.8068 242.063 24.2955 242.517 23.6364C242.983 22.9773 243.216 22.1875 243.216 21.267C243.216 20.0057 242.767 18.9886 241.869 18.2159C240.983 17.4432 239.722 17.0568 238.085 17.0568H232.477V25.6989ZM278.393 11.0909H285.774V33.7614C285.774 36.3068 285.166 38.5341 283.95 40.4432C282.746 42.3523 281.058 43.8409 278.888 44.9091C276.717 45.9659 274.189 46.4943 271.303 46.4943C268.405 46.4943 265.871 45.9659 263.7 44.9091C261.53 43.8409 259.842 42.3523 258.638 40.4432C257.433 38.5341 256.831 36.3068 256.831 33.7614V11.0909H264.212V33.1307C264.212 34.4602 264.501 35.642 265.081 36.6761C265.672 37.7102 266.501 38.5227 267.57 39.1136C268.638 39.7045 269.882 40 271.303 40C272.734 40 273.979 39.7045 275.036 39.1136C276.104 38.5227 276.928 37.7102 277.507 36.6761C278.098 35.642 278.393 34.4602 278.393 33.1307V11.0909ZM289.801 11.0909H298.068L306.028 26.125H306.369L314.33 11.0909H322.597L309.864 33.6591V46H302.534V33.6591L289.801 11.0909Z" fill="#5555AC"/>
<ellipse cx="32.972" cy="40" rx="8.97205" ry="9" fill="#5555AC"/>
<path d="M36.9596 40.8034H33.7679V44H32.1762V40.8034H28.9845V39.1966H32.1762V36H33.7679V39.1966H36.9596V40.8034Z" fill="white"/>
</svg>
