<svg width="32" height="28" viewBox="0 0 32 28" fill="none" xmlns="http://www.w3.org/2000/svg">
<g clip-path="url(#clip0_2008_411)">
<path d="M31.012 18.942L27.5453 8.05958C26.8051 5.73168 25.1921 3.68632 22.9631 2.24905C20.734 0.81177 18.0171 0.0651666 15.2446 0.128062C12.4722 0.190957 9.80355 1.05974 7.66345 2.59613C5.52336 4.13252 4.0348 6.24824 3.43468 8.60654L0.753343 19.1162C0.6236 19.6254 0.626764 20.1534 0.762603 20.6614C0.898442 21.1693 1.16349 21.6442 1.53819 22.051C1.91289 22.4579 2.38768 22.7862 2.92753 23.0119C3.46739 23.2376 4.05853 23.3548 4.65734 23.3549H9.46668C9.7727 24.6675 10.5903 25.8476 11.781 26.6952C12.9717 27.5429 14.4622 28.0059 16 28.0059C17.5378 28.0059 19.0283 27.5429 20.219 26.6952C21.4097 25.8476 22.2273 24.6675 22.5333 23.3549H27.16C27.7762 23.3547 28.3839 23.2305 28.9359 22.992C29.4878 22.7535 29.969 22.4072 30.342 21.98C30.715 21.5529 30.9697 21.0565 31.0861 20.5295C31.2026 20.0025 31.1763 19.4592 31.012 18.942ZM16 25.6775C15.1757 25.6745 14.3725 25.4498 13.7004 25.0341C13.0283 24.6183 12.5201 24.0319 12.2453 23.3549H19.7547C19.4799 24.0319 18.9717 24.6183 18.2996 25.0341C17.6275 25.4498 16.8244 25.6745 16 25.6775ZM28.22 20.5736C28.0956 20.7173 27.9344 20.8336 27.7492 20.9132C27.5639 20.9929 27.3599 21.0337 27.1533 21.0324H4.65734C4.45769 21.0323 4.2606 20.9932 4.08061 20.918C3.90061 20.8427 3.74232 20.7333 3.61741 20.5976C3.49251 20.462 3.40417 20.3036 3.35893 20.1342C3.31368 19.9649 3.31268 19.7888 3.35601 19.6191L6.03734 9.10938C6.50981 7.25853 7.67909 5.59834 9.35928 4.39274C11.0395 3.18714 13.1342 2.50532 15.3104 2.45567C17.4866 2.40602 19.6194 2.99138 21.3698 4.1187C23.1201 5.24603 24.3876 6.85061 24.9707 8.67738L28.4373 19.5598C28.4939 19.7319 28.5038 19.9131 28.4661 20.0891C28.4283 20.265 28.3441 20.4309 28.22 20.5736Z" fill="current"/>
</g>
<defs>
<clipPath id="clip0_2008_411">
<rect width="32" height="27.871" fill="white" transform="translate(0 0.129028)"/>
</clipPath>
</defs>
</svg>
