<svg width="22" height="24" viewBox="0 0 22 24" fill="none" xmlns="http://www.w3.org/2000/svg">
<path d="M21.7314 21.8642L16.2598 16.1439C17.7509 14.2374 18.484 11.8046 18.3075 9.34886C18.131 6.89311 17.0584 4.60221 15.3116 2.95003C13.5648 1.29786 11.2774 0.410807 8.92249 0.472362C6.56762 0.533918 4.32546 1.53937 2.6598 3.28075C0.99413 5.02213 0.0323928 7.3662 -0.0264864 9.82811C-0.0853655 12.29 0.763118 14.6814 2.34346 16.5076C3.9238 18.3339 6.1151 19.4552 8.46408 19.6397C10.8131 19.8242 13.14 19.0578 14.9637 17.499L20.4352 23.2192C20.6081 23.3938 20.8397 23.4904 21.08 23.4882C21.3204 23.486 21.5503 23.3853 21.7202 23.2076C21.8902 23.0299 21.9866 22.7895 21.9887 22.5383C21.9908 22.287 21.8984 22.0449 21.7314 21.8642ZM9.16665 17.75C7.71625 17.75 6.29843 17.3004 5.09247 16.458C3.88651 15.6155 2.94658 14.4182 2.39153 13.0173C1.83649 11.6164 1.69127 10.0749 1.97422 8.58768C2.25718 7.10049 2.95562 5.73442 3.9812 4.66222C5.00678 3.59001 6.31346 2.85983 7.73599 2.56401C9.15851 2.26819 10.633 2.42002 11.973 3.00029C13.313 3.58056 14.4583 4.56322 15.2641 5.824C16.0699 7.08477 16.5 8.56705 16.5 10.0834C16.4978 12.116 15.7245 14.0647 14.3497 15.502C12.9749 16.9393 11.1109 17.7478 9.16665 17.75Z" fill="current"/>
</svg>
