<svg width="45" height="41" viewBox="0 0 45 41" fill="none" xmlns="http://www.w3.org/2000/svg">
<path d="M38.26 6.53418C34.0513 2.84277 28.4464 0.8125 22.49 0.8125C10.1953 0.8125 0.190848 9.56641 0.190848 20.3242C0.190848 23.7607 1.2154 27.1182 3.16406 30.0801L0 40.1875L11.8225 37.4717C15.077 39.0273 18.7433 39.8447 22.4799 39.8447H22.49C34.7746 39.8447 45 31.0908 45 20.333C45 15.1211 42.4688 10.2256 38.26 6.53418ZM22.49 36.5576C19.1551 36.5576 15.8906 35.7754 13.048 34.2988L12.375 33.9473L5.36384 35.5557L7.23214 29.5703L6.79018 28.9551C4.93192 26.3711 3.95759 23.3916 3.95759 20.3242C3.95759 11.3857 12.2746 4.1084 22.5 4.1084C27.452 4.1084 32.1027 5.7959 35.5982 8.86328C39.0937 11.9307 41.2433 16 41.2333 20.333C41.2333 29.2803 32.7054 36.5576 22.49 36.5576ZM32.6551 24.4111C32.1027 24.165 29.3605 22.9873 28.8482 22.8291C28.3359 22.6621 27.9643 22.583 27.5926 23.0752C27.221 23.5674 26.1562 24.6572 25.8248 24.9912C25.5033 25.3164 25.1719 25.3604 24.6194 25.1143C21.3449 23.6816 19.1953 22.5566 17.0357 19.3135C16.4632 18.4521 17.6083 18.5137 18.673 16.6504C18.8538 16.3252 18.7634 16.0439 18.6228 15.7979C18.4821 15.5518 17.3672 13.1523 16.9051 12.1768C16.4531 11.2275 15.9911 11.3594 15.6496 11.3418C15.3281 11.3242 14.9565 11.3242 14.5848 11.3242C14.2132 11.3242 13.6105 11.4473 13.0982 11.9307C12.5859 12.4229 11.1496 13.6006 11.1496 16C11.1496 18.3994 13.1484 20.7197 13.4196 21.0449C13.7009 21.3701 17.3471 26.292 22.942 28.4102C26.4777 29.7461 27.8638 29.8604 29.6317 29.6318C30.7065 29.4912 32.9263 28.4541 33.3884 27.3115C33.8504 26.1689 33.8504 25.1934 33.7098 24.9912C33.5792 24.7715 33.2076 24.6484 32.6551 24.4111Z" fill="#383838"/>
</svg>
